<svg width="48" height="48" viewBox="0 0 48 48" fill="none" xmlns="http://www.w3.org/2000/svg">
<g clip-path="url(#clip0_62_11710)">
<path d="M23.9559 14.7755C23.932 14.7755 23.916 14.8023 23.9027 14.8265L22.1166 18.3776L22.1007 18.4151L21.5683 19.488L20.7006 21.2099L19.7743 23.0069L18.8506 24.8388L17.9483 26.6224L17.1098 28.2853L16.3672 29.7578L15.755 30.9674L15.3131 31.8579L15.0735 32.33C15.0651 32.3524 15.0543 32.374 15.0416 32.3943C14.5811 33.3063 13.8278 33.3063 13.3647 32.3943L7.47413 20.7244C7.45832 20.6862 7.45017 20.6452 7.45017 20.6037C7.45017 20.5623 7.45832 20.5213 7.47413 20.483L9.11113 17.2404C9.24156 16.9721 9.45716 16.9721 9.58759 17.2404L13.6282 25.2465C13.7586 25.5147 13.9742 25.5147 14.1046 25.2465L16.4444 20.6091C16.4615 20.5707 16.4703 20.5291 16.4703 20.4871C16.4703 20.445 16.4615 20.4034 16.4444 20.365L8.53086 4.69341C8.40043 4.4252 8.18749 4.4252 8.05706 4.69341L0.0264514 20.593C0.00933707 20.6314 0.000488281 20.673 0.000488281 20.715C0.000488281 20.7571 0.00933707 20.7987 0.0264514 20.8371L11.9592 44.4639C12.0923 44.7321 12.2707 44.8716 12.457 44.8716H16.274C16.4603 44.8716 16.6387 44.7267 16.7718 44.4639L23.7323 30.6858C23.8628 30.4176 24.0784 30.4176 24.2088 30.6858L31.2279 44.5899C31.361 44.8581 31.5393 45.0003 31.7257 45.0003H35.5427C35.729 45.0003 35.91 44.8528 36.0404 44.5899L47.9759 20.9578C48.0077 20.8796 48.0077 20.7919 47.9759 20.7137L39.9426 4.81142C39.8122 4.54321 39.5992 4.54321 39.4688 4.81142L31.5553 20.483C31.5383 20.521 31.5294 20.5621 31.5294 20.6037C31.5294 20.6454 31.5383 20.6865 31.5553 20.7244L33.8977 25.3618C34.0281 25.63 34.2411 25.63 34.3715 25.3618L38.4121 17.3557C38.5452 17.0875 38.7581 17.0875 38.8885 17.3557L40.5255 20.593C40.5573 20.6712 40.5573 20.7589 40.5255 20.8371L34.0334 33.6925C33.903 33.9607 33.6901 33.9607 33.5596 33.6925L32.825 32.2388L32.455 31.5039L31.8854 30.3774L31.1587 28.9371L30.3149 27.2661L29.3913 25.4396L28.433 23.5433L27.4748 21.6498L26.5618 19.8393C25.9727 18.6735 25.3835 17.5059 24.7944 16.3365C24.5282 15.8296 24.278 15.328 24.0171 14.8238C24.0065 14.8023 23.9879 14.7755 23.9559 14.7755Z" fill="#121616"/>
</g>
<defs>
<clipPath id="clip0_62_11710">
<rect width="48" height="40.5" fill="white" transform="translate(0 4.5)"/>
</clipPath>
</defs>
</svg>
